<mxfile host="Electron" modified="2024-01-29T00:49:30.923Z" agent="Mozilla/5.0 (Windows NT 10.0; Win64; x64) AppleWebKit/537.36 (KHTML, like Gecko) draw.io/22.0.3 Chrome/114.0.5735.289 Electron/25.8.4 Safari/537.36" etag="VtgAT3ofFKELi7ov1KBN" version="22.0.3" type="device">
  <diagram id="R2lEEEUBdFMjLlhIrx00" name="Page-1">
    <mxGraphModel dx="1595" dy="768" grid="1" gridSize="10" guides="1" tooltips="1" connect="1" arrows="1" fold="1" page="1" pageScale="1" pageWidth="850" pageHeight="1100" math="0" shadow="0" extFonts="Permanent Marker^https://fonts.googleapis.com/css?family=Permanent+Marker">
      <root>
        <mxCell id="0" />
        <mxCell id="1" parent="0" />
        <mxCell id="3p6yg__9nnK3ZTHGhMpI-1" value="Student" style="rounded=1;arcSize=10;whiteSpace=wrap;html=1;align=center;" parent="1" vertex="1">
          <mxGeometry x="425" y="510" width="115" height="50" as="geometry" />
        </mxCell>
        <mxCell id="3p6yg__9nnK3ZTHGhMpI-2" value="Department" style="rounded=1;arcSize=10;whiteSpace=wrap;html=1;align=center;" parent="1" vertex="1">
          <mxGeometry x="850" y="410" width="110" height="50" as="geometry" />
        </mxCell>
        <mxCell id="3p6yg__9nnK3ZTHGhMpI-3" value="" style="endArrow=none;html=1;rounded=0;exitX=0;exitY=0.75;exitDx=0;exitDy=0;" parent="1" source="3p6yg__9nnK3ZTHGhMpI-1" target="3p6yg__9nnK3ZTHGhMpI-4" edge="1">
          <mxGeometry relative="1" as="geometry">
            <mxPoint x="330" y="550" as="sourcePoint" />
            <mxPoint x="760" y="550" as="targetPoint" />
          </mxGeometry>
        </mxCell>
        <mxCell id="3p6yg__9nnK3ZTHGhMpI-4" value="Email" style="ellipse;whiteSpace=wrap;html=1;align=center;" parent="1" vertex="1">
          <mxGeometry x="220" y="520" width="100" height="40" as="geometry" />
        </mxCell>
        <mxCell id="3p6yg__9nnK3ZTHGhMpI-5" value="" style="endArrow=none;html=1;rounded=0;exitX=0.5;exitY=0;exitDx=0;exitDy=0;entryX=0.5;entryY=1;entryDx=0;entryDy=0;" parent="1" source="3p6yg__9nnK3ZTHGhMpI-1" target="3p6yg__9nnK3ZTHGhMpI-6" edge="1">
          <mxGeometry relative="1" as="geometry">
            <mxPoint x="410" y="510" as="sourcePoint" />
            <mxPoint x="483" y="420" as="targetPoint" />
          </mxGeometry>
        </mxCell>
        <mxCell id="3p6yg__9nnK3ZTHGhMpI-6" value="Address" style="ellipse;whiteSpace=wrap;html=1;align=center;" parent="1" vertex="1">
          <mxGeometry x="434.5" y="339" width="100" height="40" as="geometry" />
        </mxCell>
        <mxCell id="3p6yg__9nnK3ZTHGhMpI-7" value="" style="endArrow=none;html=1;rounded=0;exitX=0.25;exitY=0;exitDx=0;exitDy=0;entryX=0.5;entryY=1;entryDx=0;entryDy=0;" parent="1" source="3p6yg__9nnK3ZTHGhMpI-1" target="3p6yg__9nnK3ZTHGhMpI-8" edge="1">
          <mxGeometry relative="1" as="geometry">
            <mxPoint x="290" y="510" as="sourcePoint" />
            <mxPoint x="450" y="440" as="targetPoint" />
          </mxGeometry>
        </mxCell>
        <mxCell id="3p6yg__9nnK3ZTHGhMpI-8" value="ID" style="ellipse;whiteSpace=wrap;html=1;align=center;fontStyle=4" parent="1" vertex="1">
          <mxGeometry x="373" y="384" width="100" height="40" as="geometry" />
        </mxCell>
        <mxCell id="3p6yg__9nnK3ZTHGhMpI-9" value="" style="endArrow=none;html=1;rounded=0;exitX=0.406;exitY=-0.008;exitDx=0;exitDy=0;exitPerimeter=0;" parent="1" source="3p6yg__9nnK3ZTHGhMpI-2" target="3p6yg__9nnK3ZTHGhMpI-10" edge="1">
          <mxGeometry relative="1" as="geometry">
            <mxPoint x="900" y="390" as="sourcePoint" />
            <mxPoint x="1090" y="660" as="targetPoint" />
          </mxGeometry>
        </mxCell>
        <mxCell id="3p6yg__9nnK3ZTHGhMpI-10" value="ID" style="ellipse;whiteSpace=wrap;html=1;align=center;fontStyle=4" parent="1" vertex="1">
          <mxGeometry x="810" y="300" width="100" height="40" as="geometry" />
        </mxCell>
        <mxCell id="3p6yg__9nnK3ZTHGhMpI-11" value="" style="endArrow=none;html=1;rounded=0;exitX=0.75;exitY=0;exitDx=0;exitDy=0;" parent="1" source="3p6yg__9nnK3ZTHGhMpI-2" target="3p6yg__9nnK3ZTHGhMpI-12" edge="1">
          <mxGeometry relative="1" as="geometry">
            <mxPoint x="850" y="630" as="sourcePoint" />
            <mxPoint x="1100" y="670" as="targetPoint" />
          </mxGeometry>
        </mxCell>
        <mxCell id="3p6yg__9nnK3ZTHGhMpI-12" value="Name" style="ellipse;whiteSpace=wrap;html=1;align=center;" parent="1" vertex="1">
          <mxGeometry x="920" y="300" width="100" height="40" as="geometry" />
        </mxCell>
        <mxCell id="3p6yg__9nnK3ZTHGhMpI-31" value="Grades" style="rounded=1;arcSize=10;whiteSpace=wrap;html=1;align=center;" parent="1" vertex="1">
          <mxGeometry x="640" y="810" width="110" height="50" as="geometry" />
        </mxCell>
        <mxCell id="3p6yg__9nnK3ZTHGhMpI-32" value="" style="endArrow=none;html=1;rounded=0;exitX=0;exitY=1;exitDx=0;exitDy=0;entryX=0.5;entryY=0;entryDx=0;entryDy=0;" parent="1" source="3p6yg__9nnK3ZTHGhMpI-31" target="3p6yg__9nnK3ZTHGhMpI-108" edge="1">
          <mxGeometry relative="1" as="geometry">
            <mxPoint x="650" y="1090" as="sourcePoint" />
            <mxPoint x="699.0125383062664" y="930.0039007018963" as="targetPoint" />
          </mxGeometry>
        </mxCell>
        <mxCell id="3p6yg__9nnK3ZTHGhMpI-34" value="" style="endArrow=none;html=1;rounded=0;exitX=0.5;exitY=1;exitDx=0;exitDy=0;entryX=0.432;entryY=0.055;entryDx=0;entryDy=0;entryPerimeter=0;" parent="1" source="3p6yg__9nnK3ZTHGhMpI-31" target="3p6yg__9nnK3ZTHGhMpI-35" edge="1">
          <mxGeometry relative="1" as="geometry">
            <mxPoint x="660" y="1100" as="sourcePoint" />
            <mxPoint x="792.4311617728176" y="931.2753171526081" as="targetPoint" />
          </mxGeometry>
        </mxCell>
        <mxCell id="3p6yg__9nnK3ZTHGhMpI-35" value="Maximum&lt;br&gt;degree" style="ellipse;whiteSpace=wrap;html=1;align=center;" parent="1" vertex="1">
          <mxGeometry x="655" y="930" width="100" height="40" as="geometry" />
        </mxCell>
        <mxCell id="3p6yg__9nnK3ZTHGhMpI-36" value="" style="endArrow=none;html=1;rounded=0;exitX=0;exitY=0.5;exitDx=0;exitDy=0;entryX=1;entryY=0;entryDx=0;entryDy=0;" parent="1" source="3p6yg__9nnK3ZTHGhMpI-31" target="3p6yg__9nnK3ZTHGhMpI-37" edge="1">
          <mxGeometry relative="1" as="geometry">
            <mxPoint x="510" y="1080" as="sourcePoint" />
            <mxPoint x="594.8533276318155" y="940.9028644733799" as="targetPoint" />
          </mxGeometry>
        </mxCell>
        <mxCell id="3p6yg__9nnK3ZTHGhMpI-37" value="&lt;u&gt;Grade Letter&lt;/u&gt;" style="ellipse;whiteSpace=wrap;html=1;align=center;" parent="1" vertex="1">
          <mxGeometry x="500" y="850" width="100" height="40" as="geometry" />
        </mxCell>
        <mxCell id="3p6yg__9nnK3ZTHGhMpI-42" value="Has&lt;br&gt;Major" style="shape=rhombus;perimeter=rhombusPerimeter;whiteSpace=wrap;html=1;align=center;" parent="1" vertex="1">
          <mxGeometry x="620" y="430" width="70" height="70" as="geometry" />
        </mxCell>
        <mxCell id="3p6yg__9nnK3ZTHGhMpI-50" value="Course" style="rounded=1;arcSize=10;whiteSpace=wrap;html=1;align=center;" parent="1" vertex="1">
          <mxGeometry x="950" y="680" width="110" height="50" as="geometry" />
        </mxCell>
        <mxCell id="3p6yg__9nnK3ZTHGhMpI-51" value="Offer" style="shape=rhombus;perimeter=rhombusPerimeter;whiteSpace=wrap;html=1;align=center;" parent="1" vertex="1">
          <mxGeometry x="960" y="550" width="70" height="60" as="geometry" />
        </mxCell>
        <mxCell id="3p6yg__9nnK3ZTHGhMpI-60" value="Phone" style="ellipse;shape=doubleEllipse;margin=3;whiteSpace=wrap;html=1;align=center;" parent="1" vertex="1">
          <mxGeometry x="510" y="384" width="100" height="40" as="geometry" />
        </mxCell>
        <mxCell id="3p6yg__9nnK3ZTHGhMpI-61" value="" style="endArrow=none;html=1;rounded=0;exitX=0.423;exitY=1.108;exitDx=0;exitDy=0;exitPerimeter=0;entryX=0.584;entryY=0.047;entryDx=0;entryDy=0;entryPerimeter=0;" parent="1" source="3p6yg__9nnK3ZTHGhMpI-60" target="3p6yg__9nnK3ZTHGhMpI-1" edge="1">
          <mxGeometry relative="1" as="geometry">
            <mxPoint x="840" y="580" as="sourcePoint" />
            <mxPoint x="1000" y="580" as="targetPoint" />
          </mxGeometry>
        </mxCell>
        <mxCell id="3p6yg__9nnK3ZTHGhMpI-62" value="" style="endArrow=none;html=1;rounded=0;exitX=0;exitY=0;exitDx=0;exitDy=0;entryX=0.798;entryY=0.945;entryDx=0;entryDy=0;entryPerimeter=0;" parent="1" source="3p6yg__9nnK3ZTHGhMpI-1" target="3p6yg__9nnK3ZTHGhMpI-63" edge="1">
          <mxGeometry relative="1" as="geometry">
            <mxPoint x="440" y="535.0000000000002" as="sourcePoint" />
            <mxPoint x="400" y="480" as="targetPoint" />
          </mxGeometry>
        </mxCell>
        <mxCell id="3p6yg__9nnK3ZTHGhMpI-63" value="Fname" style="ellipse;whiteSpace=wrap;html=1;align=center;" parent="1" vertex="1">
          <mxGeometry x="300" y="420" width="100" height="40" as="geometry" />
        </mxCell>
        <mxCell id="3p6yg__9nnK3ZTHGhMpI-64" value="" style="endArrow=none;html=1;rounded=0;exitX=0;exitY=0.5;exitDx=0;exitDy=0;" parent="1" source="3p6yg__9nnK3ZTHGhMpI-1" target="3p6yg__9nnK3ZTHGhMpI-65" edge="1">
          <mxGeometry relative="1" as="geometry">
            <mxPoint x="415" y="580" as="sourcePoint" />
            <mxPoint x="750" y="650" as="targetPoint" />
          </mxGeometry>
        </mxCell>
        <mxCell id="3p6yg__9nnK3ZTHGhMpI-65" value="Lname" style="ellipse;whiteSpace=wrap;html=1;align=center;" parent="1" vertex="1">
          <mxGeometry x="275" y="470" width="100" height="40" as="geometry" />
        </mxCell>
        <mxCell id="3p6yg__9nnK3ZTHGhMpI-66" value="" style="endArrow=none;html=1;rounded=0;exitX=0;exitY=1;exitDx=0;exitDy=0;" parent="1" source="3p6yg__9nnK3ZTHGhMpI-1" target="3p6yg__9nnK3ZTHGhMpI-67" edge="1">
          <mxGeometry relative="1" as="geometry">
            <mxPoint x="380" y="570" as="sourcePoint" />
            <mxPoint x="770" y="560" as="targetPoint" />
          </mxGeometry>
        </mxCell>
        <mxCell id="3p6yg__9nnK3ZTHGhMpI-67" value="Password" style="ellipse;whiteSpace=wrap;html=1;align=center;" parent="1" vertex="1">
          <mxGeometry x="210" y="570" width="100" height="40" as="geometry" />
        </mxCell>
        <mxCell id="3p6yg__9nnK3ZTHGhMpI-68" value="" style="endArrow=none;html=1;rounded=0;exitX=0.25;exitY=1;exitDx=0;exitDy=0;" parent="1" source="3p6yg__9nnK3ZTHGhMpI-1" target="3p6yg__9nnK3ZTHGhMpI-69" edge="1">
          <mxGeometry relative="1" as="geometry">
            <mxPoint x="445" y="560" as="sourcePoint" />
            <mxPoint x="780" y="570" as="targetPoint" />
          </mxGeometry>
        </mxCell>
        <mxCell id="3p6yg__9nnK3ZTHGhMpI-69" value="Level" style="ellipse;whiteSpace=wrap;html=1;align=center;" parent="1" vertex="1">
          <mxGeometry x="260" y="620" width="100" height="40" as="geometry" />
        </mxCell>
        <mxCell id="3p6yg__9nnK3ZTHGhMpI-70" value="" style="endArrow=none;html=1;rounded=0;exitX=0.5;exitY=1;exitDx=0;exitDy=0;entryX=0.5;entryY=0;entryDx=0;entryDy=0;" parent="1" source="3p6yg__9nnK3ZTHGhMpI-1" target="3p6yg__9nnK3ZTHGhMpI-112" edge="1">
          <mxGeometry relative="1" as="geometry">
            <mxPoint x="525" y="610" as="sourcePoint" />
            <mxPoint x="437.2112699069178" y="630.6056301478372" as="targetPoint" />
          </mxGeometry>
        </mxCell>
        <mxCell id="3p6yg__9nnK3ZTHGhMpI-74" value="Has&lt;br&gt;Minor" style="shape=rhombus;perimeter=rhombusPerimeter;whiteSpace=wrap;html=1;align=center;" parent="1" vertex="1">
          <mxGeometry x="670" y="520" width="70" height="60" as="geometry" />
        </mxCell>
        <mxCell id="3p6yg__9nnK3ZTHGhMpI-75" value="" style="endArrow=none;html=1;rounded=0;entryX=0.086;entryY=0.992;entryDx=0;entryDy=0;exitX=1;exitY=0.5;exitDx=0;exitDy=0;entryPerimeter=0;" parent="1" source="3p6yg__9nnK3ZTHGhMpI-74" target="3p6yg__9nnK3ZTHGhMpI-2" edge="1">
          <mxGeometry relative="1" as="geometry">
            <mxPoint x="900" y="500" as="sourcePoint" />
            <mxPoint x="830" y="580" as="targetPoint" />
          </mxGeometry>
        </mxCell>
        <mxCell id="3p6yg__9nnK3ZTHGhMpI-76" value="1" style="resizable=0;html=1;whiteSpace=wrap;align=right;verticalAlign=bottom;" parent="3p6yg__9nnK3ZTHGhMpI-75" connectable="0" vertex="1">
          <mxGeometry x="1" relative="1" as="geometry">
            <mxPoint x="4" y="30" as="offset" />
          </mxGeometry>
        </mxCell>
        <mxCell id="3p6yg__9nnK3ZTHGhMpI-83" value="" style="endArrow=none;html=1;rounded=0;exitX=1;exitY=0.5;exitDx=0;exitDy=0;entryX=0;entryY=0.5;entryDx=0;entryDy=0;" parent="1" source="3p6yg__9nnK3ZTHGhMpI-42" target="3p6yg__9nnK3ZTHGhMpI-2" edge="1">
          <mxGeometry relative="1" as="geometry">
            <mxPoint x="700" y="440" as="sourcePoint" />
            <mxPoint x="860" y="440" as="targetPoint" />
          </mxGeometry>
        </mxCell>
        <mxCell id="3p6yg__9nnK3ZTHGhMpI-84" value="1" style="resizable=0;html=1;whiteSpace=wrap;align=right;verticalAlign=bottom;" parent="3p6yg__9nnK3ZTHGhMpI-83" connectable="0" vertex="1">
          <mxGeometry x="1" relative="1" as="geometry">
            <mxPoint x="-10" y="-2" as="offset" />
          </mxGeometry>
        </mxCell>
        <mxCell id="3p6yg__9nnK3ZTHGhMpI-85" value="" style="endArrow=none;html=1;rounded=0;entryX=0.25;entryY=1;entryDx=0;entryDy=0;" parent="1" source="3p6yg__9nnK3ZTHGhMpI-86" target="3p6yg__9nnK3ZTHGhMpI-50" edge="1">
          <mxGeometry relative="1" as="geometry">
            <mxPoint x="1115" y="980" as="sourcePoint" />
            <mxPoint x="1310" y="1230" as="targetPoint" />
          </mxGeometry>
        </mxCell>
        <mxCell id="3p6yg__9nnK3ZTHGhMpI-86" value="ID" style="ellipse;whiteSpace=wrap;html=1;align=center;fontStyle=4" parent="1" vertex="1">
          <mxGeometry x="890" y="750" width="100" height="40" as="geometry" />
        </mxCell>
        <mxCell id="3p6yg__9nnK3ZTHGhMpI-87" value="" style="endArrow=none;html=1;rounded=0;exitX=0.5;exitY=0;exitDx=0;exitDy=0;entryX=0.615;entryY=0.98;entryDx=0;entryDy=0;entryPerimeter=0;" parent="1" source="3p6yg__9nnK3ZTHGhMpI-88" target="3p6yg__9nnK3ZTHGhMpI-50" edge="1">
          <mxGeometry relative="1" as="geometry">
            <mxPoint x="1153" y="980" as="sourcePoint" />
            <mxPoint x="1320" y="1240" as="targetPoint" />
          </mxGeometry>
        </mxCell>
        <mxCell id="3p6yg__9nnK3ZTHGhMpI-88" value="Name" style="ellipse;whiteSpace=wrap;html=1;align=center;" parent="1" vertex="1">
          <mxGeometry x="930" y="800" width="100" height="40" as="geometry" />
        </mxCell>
        <mxCell id="3p6yg__9nnK3ZTHGhMpI-90" value="" style="endArrow=none;html=1;rounded=0;exitX=0.252;exitY=0.125;exitDx=0;exitDy=0;entryX=1;entryY=1;entryDx=0;entryDy=0;exitPerimeter=0;" parent="1" source="3p6yg__9nnK3ZTHGhMpI-91" target="3p6yg__9nnK3ZTHGhMpI-50" edge="1">
          <mxGeometry relative="1" as="geometry">
            <mxPoint x="1243" y="940" as="sourcePoint" />
            <mxPoint x="1193" y="720" as="targetPoint" />
          </mxGeometry>
        </mxCell>
        <mxCell id="3p6yg__9nnK3ZTHGhMpI-91" value="Credit Hours" style="ellipse;whiteSpace=wrap;html=1;align=center;" parent="1" vertex="1">
          <mxGeometry x="1070" y="750" width="100" height="40" as="geometry" />
        </mxCell>
        <mxCell id="3p6yg__9nnK3ZTHGhMpI-94" value="" style="shape=link;html=1;rounded=0;entryX=0.437;entryY=0.02;entryDx=0;entryDy=0;entryPerimeter=0;exitX=0.5;exitY=1;exitDx=0;exitDy=0;" parent="1" source="3p6yg__9nnK3ZTHGhMpI-51" target="3p6yg__9nnK3ZTHGhMpI-50" edge="1">
          <mxGeometry relative="1" as="geometry">
            <mxPoint x="1000" y="608.89" as="sourcePoint" />
            <mxPoint x="1160" y="608.89" as="targetPoint" />
          </mxGeometry>
        </mxCell>
        <mxCell id="3p6yg__9nnK3ZTHGhMpI-95" value="N" style="resizable=0;html=1;whiteSpace=wrap;align=right;verticalAlign=bottom;" parent="3p6yg__9nnK3ZTHGhMpI-94" connectable="0" vertex="1">
          <mxGeometry x="1" relative="1" as="geometry">
            <mxPoint x="17" y="-4" as="offset" />
          </mxGeometry>
        </mxCell>
        <mxCell id="3p6yg__9nnK3ZTHGhMpI-96" value="" style="shape=link;html=1;rounded=0;exitX=0.5;exitY=0;exitDx=0;exitDy=0;entryX=1;entryY=1;entryDx=0;entryDy=0;" parent="1" source="3p6yg__9nnK3ZTHGhMpI-51" target="3p6yg__9nnK3ZTHGhMpI-2" edge="1">
          <mxGeometry relative="1" as="geometry">
            <mxPoint x="1160" y="540" as="sourcePoint" />
            <mxPoint x="1320" y="540" as="targetPoint" />
          </mxGeometry>
        </mxCell>
        <mxCell id="3p6yg__9nnK3ZTHGhMpI-97" value="1" style="resizable=0;html=1;whiteSpace=wrap;align=right;verticalAlign=bottom;" parent="3p6yg__9nnK3ZTHGhMpI-96" connectable="0" vertex="1">
          <mxGeometry x="1" relative="1" as="geometry">
            <mxPoint x="21" y="17" as="offset" />
          </mxGeometry>
        </mxCell>
        <mxCell id="3p6yg__9nnK3ZTHGhMpI-98" value="prerequisite" style="shape=rhombus;perimeter=rhombusPerimeter;whiteSpace=wrap;html=1;align=center;rotation=30;" parent="1" vertex="1">
          <mxGeometry x="1100" y="580" width="90" height="80" as="geometry" />
        </mxCell>
        <mxCell id="3p6yg__9nnK3ZTHGhMpI-104" value="" style="endArrow=none;html=1;rounded=0;exitX=0.849;exitY=-0.016;exitDx=0;exitDy=0;exitPerimeter=0;entryX=0;entryY=0.5;entryDx=0;entryDy=0;" parent="1" source="3p6yg__9nnK3ZTHGhMpI-50" target="3p6yg__9nnK3ZTHGhMpI-98" edge="1">
          <mxGeometry relative="1" as="geometry">
            <mxPoint x="1090" y="580" as="sourcePoint" />
            <mxPoint x="1130" y="610" as="targetPoint" />
          </mxGeometry>
        </mxCell>
        <mxCell id="3p6yg__9nnK3ZTHGhMpI-105" value="N" style="resizable=0;html=1;whiteSpace=wrap;align=right;verticalAlign=bottom;" parent="3p6yg__9nnK3ZTHGhMpI-104" connectable="0" vertex="1">
          <mxGeometry x="1" relative="1" as="geometry">
            <mxPoint x="-1" y="41" as="offset" />
          </mxGeometry>
        </mxCell>
        <mxCell id="3p6yg__9nnK3ZTHGhMpI-106" value="" style="endArrow=none;html=1;rounded=0;exitX=1;exitY=0.75;exitDx=0;exitDy=0;entryX=1;entryY=0.5;entryDx=0;entryDy=0;" parent="1" source="3p6yg__9nnK3ZTHGhMpI-50" target="3p6yg__9nnK3ZTHGhMpI-98" edge="1">
          <mxGeometry relative="1" as="geometry">
            <mxPoint x="1230" y="720" as="sourcePoint" />
            <mxPoint x="1280" y="660" as="targetPoint" />
          </mxGeometry>
        </mxCell>
        <mxCell id="3p6yg__9nnK3ZTHGhMpI-107" value="N" style="resizable=0;html=1;whiteSpace=wrap;align=right;verticalAlign=bottom;" parent="3p6yg__9nnK3ZTHGhMpI-106" connectable="0" vertex="1">
          <mxGeometry x="1" relative="1" as="geometry">
            <mxPoint x="-49" y="31" as="offset" />
          </mxGeometry>
        </mxCell>
        <mxCell id="3p6yg__9nnK3ZTHGhMpI-108" value="Minimum&lt;br&gt;&amp;nbsp;degree" style="ellipse;whiteSpace=wrap;html=1;align=center;" parent="1" vertex="1">
          <mxGeometry x="555" y="910" width="100" height="40" as="geometry" />
        </mxCell>
        <mxCell id="3p6yg__9nnK3ZTHGhMpI-109" value="" style="endArrow=none;html=1;rounded=0;exitX=1;exitY=1;exitDx=0;exitDy=0;entryX=0.334;entryY=0.089;entryDx=0;entryDy=0;entryPerimeter=0;" parent="1" source="3p6yg__9nnK3ZTHGhMpI-31" target="3p6yg__9nnK3ZTHGhMpI-110" edge="1">
          <mxGeometry relative="1" as="geometry">
            <mxPoint x="878" y="840" as="sourcePoint" />
            <mxPoint x="768.4096468467192" y="890.5447643498499" as="targetPoint" />
          </mxGeometry>
        </mxCell>
        <mxCell id="3p6yg__9nnK3ZTHGhMpI-110" value="GPA" style="ellipse;whiteSpace=wrap;html=1;align=center;rotation=0;" parent="1" vertex="1">
          <mxGeometry x="740" y="890" width="100" height="40" as="geometry" />
        </mxCell>
        <mxCell id="3p6yg__9nnK3ZTHGhMpI-112" value="GPA" style="ellipse;whiteSpace=wrap;html=1;align=center;dashed=1;" parent="1" vertex="1">
          <mxGeometry x="425" y="640" width="100" height="40" as="geometry" />
        </mxCell>
        <mxCell id="3p6yg__9nnK3ZTHGhMpI-113" value="" style="endArrow=none;html=1;rounded=0;exitX=0.377;exitY=1.033;exitDx=0;exitDy=0;exitPerimeter=0;entryX=0.578;entryY=0.055;entryDx=0;entryDy=0;entryPerimeter=0;" parent="1" source="3p6yg__9nnK3ZTHGhMpI-1" target="WUe_XbMl8DUAV8tiOLT--1" edge="1">
          <mxGeometry relative="1" as="geometry">
            <mxPoint x="530" y="590" as="sourcePoint" />
            <mxPoint x="389.80493855570035" y="662.7268534765158" as="targetPoint" />
          </mxGeometry>
        </mxCell>
        <mxCell id="3p6yg__9nnK3ZTHGhMpI-115" value="Enroll" style="shape=rhombus;perimeter=rhombusPerimeter;whiteSpace=wrap;html=1;align=center;" parent="1" vertex="1">
          <mxGeometry x="660" y="680" width="90" height="80" as="geometry" />
        </mxCell>
        <mxCell id="3p6yg__9nnK3ZTHGhMpI-116" value="" style="endArrow=none;html=1;rounded=0;exitX=0;exitY=0.5;exitDx=0;exitDy=0;entryX=1;entryY=0;entryDx=0;entryDy=0;" parent="1" source="3p6yg__9nnK3ZTHGhMpI-42" target="3p6yg__9nnK3ZTHGhMpI-1" edge="1">
          <mxGeometry relative="1" as="geometry">
            <mxPoint x="610" y="570" as="sourcePoint" />
            <mxPoint x="770" y="570" as="targetPoint" />
          </mxGeometry>
        </mxCell>
        <mxCell id="3p6yg__9nnK3ZTHGhMpI-117" value="N" style="resizable=0;html=1;whiteSpace=wrap;align=right;verticalAlign=bottom;" parent="3p6yg__9nnK3ZTHGhMpI-116" connectable="0" vertex="1">
          <mxGeometry x="1" relative="1" as="geometry">
            <mxPoint x="5" y="-6" as="offset" />
          </mxGeometry>
        </mxCell>
        <mxCell id="3p6yg__9nnK3ZTHGhMpI-118" value="" style="endArrow=none;html=1;rounded=0;entryX=1;entryY=0.75;entryDx=0;entryDy=0;exitX=0;exitY=0.5;exitDx=0;exitDy=0;" parent="1" source="3p6yg__9nnK3ZTHGhMpI-74" target="3p6yg__9nnK3ZTHGhMpI-1" edge="1">
          <mxGeometry relative="1" as="geometry">
            <mxPoint x="640" y="590" as="sourcePoint" />
            <mxPoint x="800" y="590" as="targetPoint" />
          </mxGeometry>
        </mxCell>
        <mxCell id="3p6yg__9nnK3ZTHGhMpI-119" value="N" style="resizable=0;html=1;whiteSpace=wrap;align=right;verticalAlign=bottom;" parent="3p6yg__9nnK3ZTHGhMpI-118" connectable="0" vertex="1">
          <mxGeometry x="1" relative="1" as="geometry">
            <mxPoint x="31" y="-7" as="offset" />
          </mxGeometry>
        </mxCell>
        <mxCell id="3p6yg__9nnK3ZTHGhMpI-126" value="" style="endArrow=none;html=1;rounded=0;exitX=0.5;exitY=0;exitDx=0;exitDy=0;entryX=0.5;entryY=1;entryDx=0;entryDy=0;" parent="1" source="3p6yg__9nnK3ZTHGhMpI-31" target="3p6yg__9nnK3ZTHGhMpI-115" edge="1">
          <mxGeometry relative="1" as="geometry">
            <mxPoint x="730" y="800" as="sourcePoint" />
            <mxPoint x="890" y="800" as="targetPoint" />
          </mxGeometry>
        </mxCell>
        <mxCell id="3p6yg__9nnK3ZTHGhMpI-127" value="N" style="resizable=0;html=1;whiteSpace=wrap;align=right;verticalAlign=bottom;" parent="3p6yg__9nnK3ZTHGhMpI-126" connectable="0" vertex="1">
          <mxGeometry x="1" relative="1" as="geometry">
            <mxPoint x="23" y="13" as="offset" />
          </mxGeometry>
        </mxCell>
        <mxCell id="3p6yg__9nnK3ZTHGhMpI-128" value="City" style="ellipse;whiteSpace=wrap;html=1;align=center;" parent="1" vertex="1">
          <mxGeometry x="340" y="299" width="100" height="40" as="geometry" />
        </mxCell>
        <mxCell id="3p6yg__9nnK3ZTHGhMpI-129" value="Street&amp;nbsp;" style="ellipse;whiteSpace=wrap;html=1;align=center;" parent="1" vertex="1">
          <mxGeometry x="430" y="270" width="100" height="40" as="geometry" />
        </mxCell>
        <mxCell id="3p6yg__9nnK3ZTHGhMpI-130" value="building no" style="ellipse;whiteSpace=wrap;html=1;align=center;" parent="1" vertex="1">
          <mxGeometry x="530" y="290" width="100" height="40" as="geometry" />
        </mxCell>
        <mxCell id="3p6yg__9nnK3ZTHGhMpI-131" value="" style="endArrow=none;html=1;rounded=0;exitX=0.695;exitY=0.953;exitDx=0;exitDy=0;exitPerimeter=0;entryX=0;entryY=0.5;entryDx=0;entryDy=0;" parent="1" source="3p6yg__9nnK3ZTHGhMpI-128" target="3p6yg__9nnK3ZTHGhMpI-6" edge="1">
          <mxGeometry relative="1" as="geometry">
            <mxPoint x="600" y="360" as="sourcePoint" />
            <mxPoint x="440" y="350" as="targetPoint" />
          </mxGeometry>
        </mxCell>
        <mxCell id="3p6yg__9nnK3ZTHGhMpI-132" value="" style="endArrow=none;html=1;rounded=0;exitX=0.5;exitY=1;exitDx=0;exitDy=0;entryX=0.5;entryY=0;entryDx=0;entryDy=0;" parent="1" source="3p6yg__9nnK3ZTHGhMpI-129" target="3p6yg__9nnK3ZTHGhMpI-6" edge="1">
          <mxGeometry relative="1" as="geometry">
            <mxPoint x="600" y="360" as="sourcePoint" />
            <mxPoint x="760" y="360" as="targetPoint" />
          </mxGeometry>
        </mxCell>
        <mxCell id="3p6yg__9nnK3ZTHGhMpI-133" value="" style="endArrow=none;html=1;rounded=0;exitX=0.915;exitY=0.253;exitDx=0;exitDy=0;exitPerimeter=0;entryX=0.252;entryY=0.923;entryDx=0;entryDy=0;entryPerimeter=0;" parent="1" source="3p6yg__9nnK3ZTHGhMpI-6" target="3p6yg__9nnK3ZTHGhMpI-130" edge="1">
          <mxGeometry relative="1" as="geometry">
            <mxPoint x="620" y="340" as="sourcePoint" />
            <mxPoint x="780" y="340" as="targetPoint" />
          </mxGeometry>
        </mxCell>
        <mxCell id="3p6yg__9nnK3ZTHGhMpI-134" value="" style="endArrow=none;html=1;rounded=0;entryX=1;entryY=0.5;entryDx=0;entryDy=0;exitX=0;exitY=0.75;exitDx=0;exitDy=0;" parent="1" source="3p6yg__9nnK3ZTHGhMpI-50" target="3p6yg__9nnK3ZTHGhMpI-115" edge="1">
          <mxGeometry relative="1" as="geometry">
            <mxPoint x="870" y="750" as="sourcePoint" />
            <mxPoint x="1030" y="750" as="targetPoint" />
          </mxGeometry>
        </mxCell>
        <mxCell id="3p6yg__9nnK3ZTHGhMpI-135" value="N" style="resizable=0;html=1;whiteSpace=wrap;align=right;verticalAlign=bottom;" parent="3p6yg__9nnK3ZTHGhMpI-134" connectable="0" vertex="1">
          <mxGeometry x="1" relative="1" as="geometry">
            <mxPoint x="8" y="-5" as="offset" />
          </mxGeometry>
        </mxCell>
        <mxCell id="3p6yg__9nnK3ZTHGhMpI-136" value="" style="endArrow=none;html=1;rounded=0;exitX=0.84;exitY=1.069;exitDx=0;exitDy=0;exitPerimeter=0;entryX=0;entryY=0;entryDx=0;entryDy=0;" parent="1" source="3p6yg__9nnK3ZTHGhMpI-1" target="3p6yg__9nnK3ZTHGhMpI-115" edge="1">
          <mxGeometry relative="1" as="geometry">
            <mxPoint x="580" y="610" as="sourcePoint" />
            <mxPoint x="740" y="610" as="targetPoint" />
          </mxGeometry>
        </mxCell>
        <mxCell id="3p6yg__9nnK3ZTHGhMpI-137" value="N" style="resizable=0;html=1;whiteSpace=wrap;align=right;verticalAlign=bottom;" parent="3p6yg__9nnK3ZTHGhMpI-136" connectable="0" vertex="1">
          <mxGeometry x="1" relative="1" as="geometry">
            <mxPoint x="5" y="-8" as="offset" />
          </mxGeometry>
        </mxCell>
        <mxCell id="3p6yg__9nnK3ZTHGhMpI-141" value="Year" style="ellipse;whiteSpace=wrap;html=1;align=center;" parent="1" vertex="1">
          <mxGeometry x="717.5" y="620" width="75" height="38" as="geometry" />
        </mxCell>
        <mxCell id="3p6yg__9nnK3ZTHGhMpI-142" value="" style="endArrow=none;html=1;rounded=0;exitX=0.339;exitY=0.986;exitDx=0;exitDy=0;entryX=0.698;entryY=0.122;entryDx=0;entryDy=0;entryPerimeter=0;exitPerimeter=0;" parent="1" source="3p6yg__9nnK3ZTHGhMpI-141" target="3p6yg__9nnK3ZTHGhMpI-115" edge="1">
          <mxGeometry relative="1" as="geometry">
            <mxPoint x="800" y="660" as="sourcePoint" />
            <mxPoint x="960" y="660" as="targetPoint" />
          </mxGeometry>
        </mxCell>
        <mxCell id="WUe_XbMl8DUAV8tiOLT--1" value="Total hours" style="ellipse;whiteSpace=wrap;html=1;align=center;dashed=1;" parent="1" vertex="1">
          <mxGeometry x="325" y="660" width="100" height="40" as="geometry" />
        </mxCell>
        <mxCell id="WUe_XbMl8DUAV8tiOLT--2" value="" style="endArrow=none;html=1;rounded=0;exitX=0.316;exitY=0.08;exitDx=0;exitDy=0;entryX=0.75;entryY=1;entryDx=0;entryDy=0;exitPerimeter=0;" parent="1" source="WUe_XbMl8DUAV8tiOLT--3" target="3p6yg__9nnK3ZTHGhMpI-50" edge="1">
          <mxGeometry relative="1" as="geometry">
            <mxPoint x="1258" y="981" as="sourcePoint" />
            <mxPoint x="1123" y="730" as="targetPoint" />
          </mxGeometry>
        </mxCell>
        <mxCell id="WUe_XbMl8DUAV8tiOLT--3" value="Minimum &lt;br&gt;Level" style="ellipse;whiteSpace=wrap;html=1;align=center;" parent="1" vertex="1">
          <mxGeometry x="1040" y="800" width="100" height="40" as="geometry" />
        </mxCell>
        <mxCell id="WUe_XbMl8DUAV8tiOLT--5" style="edgeStyle=orthogonalEdgeStyle;rounded=0;orthogonalLoop=1;jettySize=auto;html=1;exitX=0.5;exitY=1;exitDx=0;exitDy=0;" parent="1" source="3p6yg__9nnK3ZTHGhMpI-86" target="3p6yg__9nnK3ZTHGhMpI-86" edge="1">
          <mxGeometry relative="1" as="geometry" />
        </mxCell>
      </root>
    </mxGraphModel>
  </diagram>
</mxfile>
